<svg width="9" height="14" viewBox="0 0 9 14" fill="none" xmlns="http://www.w3.org/2000/svg">
<path d="M0.223317 7.54628L6.4535 13.7763C6.59759 13.9206 6.78995 14 6.99505 14C7.20016 14 7.39251 13.9206 7.53661 13.7763L7.99542 13.3176C8.29397 13.0188 8.29397 12.533 7.99542 12.2345L2.76378 7.0029L8.00122 1.76547C8.14532 1.62126 8.22488 1.42901 8.22488 1.22402C8.22488 1.0188 8.14532 0.826562 8.00122 0.682239L7.54241 0.223657C7.3982 0.0794468 7.20596 0 7.00086 0C6.79575 0 6.6034 0.0794468 6.4593 0.223657L0.223317 6.45941C0.0788794 6.60408 -0.000452995 6.79723 1.90735e-06 7.00256C-0.000452995 7.20869 0.0788794 7.40173 0.223317 7.54628Z" fill="#D64374"/>
</svg>
