<svg width="51" height="44" viewBox="0 0 51 44" fill="none" xmlns="http://www.w3.org/2000/svg">
<path d="M42 25.313H33.75C33.5262 25.313 33.3116 25.2241 33.1534 25.0659C32.9951 24.9076 32.9062 24.693 32.9062 24.4692C32.9062 24.2455 32.9951 24.0309 33.1534 23.8726C33.3116 23.7144 33.5262 23.6255 33.75 23.6255H42C42.2238 23.6255 42.4384 23.7144 42.5966 23.8726C42.7548 24.0309 42.8437 24.2455 42.8437 24.4692C42.8437 24.693 42.7548 24.9076 42.5966 25.0659C42.4384 25.2241 42.2238 25.313 42 25.313Z" fill="#E0E2E5"/>
<path d="M23.625 14.3442L25.3125 34.5942V36.2817H35.4375V34.5942L37.125 14.3442H23.625Z" fill="#93573D"/>
<path d="M15.1875 14.3442V13.5005H11.8125V16.0317H8.4375V24.4692H11.8125H15.1875V23.6255H18.5625V14.3442H15.1875Z" fill="#FDD14B"/>
<path d="M11.8125 27.0005C11.5887 27.0005 11.3741 26.9116 11.2159 26.7534C11.0576 26.5951 10.9688 26.3805 10.9688 26.1567V16.8755C10.9688 16.6517 11.0576 16.4371 11.2159 16.2789C11.3741 16.1206 11.5887 16.0317 11.8125 16.0317C12.0363 16.0317 12.2509 16.1206 12.4091 16.2789C12.5674 16.4371 12.6562 16.6517 12.6562 16.8755V26.1567C12.6562 26.3805 12.5674 26.5951 12.4091 26.7534C12.2509 26.9116 12.0363 27.0005 11.8125 27.0005Z" fill="#E4BC43"/>
<path d="M15.3082 28.688C15.0858 28.688 14.8724 28.6002 14.7144 28.4437C14.5564 28.2872 14.4666 28.0747 14.4644 27.8523L14.3438 15.196C14.3417 14.9723 14.4285 14.7568 14.5852 14.5971C14.742 14.4373 14.9557 14.3464 15.1795 14.3443C15.4033 14.3422 15.6188 14.429 15.7785 14.5857C15.9382 14.7425 16.0292 14.9562 16.0313 15.18L16.1518 27.8363C16.154 28.06 16.0671 28.2754 15.9105 28.4352C15.7538 28.5949 15.5401 28.6859 15.3163 28.688H15.3082Z" fill="#E4BC43"/>
<path d="M7.59375 22.7817L9.28125 34.5942V36.2817H19.4062V34.5942V22.7817H7.59375Z" fill="#E74444"/>
<path d="M47.25 25.313H45.5625C45.3387 25.313 45.1241 25.2241 44.9659 25.0659C44.8076 24.9076 44.7188 24.693 44.7188 24.4692C44.7188 24.2455 44.8076 24.0309 44.9659 23.8726C45.1241 23.7144 45.3387 23.6255 45.5625 23.6255H47.25C47.4738 23.6255 47.6884 23.7144 47.8466 23.8726C48.0049 24.0309 48.0938 24.2455 48.0938 24.4692C48.0938 24.693 48.0049 24.9076 47.8466 25.0659C47.6884 25.2241 47.4738 25.313 47.25 25.313Z" fill="#E0E2E5"/>
<path d="M37.125 14.3442L36.8434 17.7192H23.9066L23.625 14.3442H37.125Z" fill="#A4D4F4"/>
<path d="M21.986 9.28177C21.8333 9.28164 21.6835 9.2401 21.5526 9.16155C21.4217 9.08301 21.3145 8.97042 21.2425 8.83577C21.1706 8.70112 21.1365 8.54947 21.1439 8.39698C21.1513 8.24448 21.2 8.09686 21.2847 7.96984L22.0863 6.76687C22.2059 6.58742 22.2522 6.36899 22.2158 6.15643C22.1794 5.94387 22.063 5.75331 21.8905 5.6239L21.0696 5.00807C20.5523 4.61969 20.2033 4.04802 20.0942 3.4104C19.9851 2.77277 20.1242 2.11757 20.4829 1.57928L21.2845 0.3762C21.346 0.284005 21.425 0.20482 21.517 0.143165C21.6091 0.0815113 21.7124 0.0385954 21.8211 0.0168681C21.9297 -0.00485918 22.0416 -0.00497208 22.1503 0.0165354C22.259 0.0380428 22.3624 0.0807494 22.4546 0.142217C22.5468 0.203685 22.626 0.28271 22.6876 0.374781C22.7493 0.466851 22.7922 0.570163 22.8139 0.678819C22.8357 0.787475 22.8358 0.899347 22.8143 1.00805C22.7928 1.11675 22.7501 1.22015 22.6886 1.31234L21.8867 2.51532C21.7671 2.69477 21.7208 2.91321 21.7572 3.12578C21.7936 3.33834 21.91 3.52889 22.0826 3.65828L22.9034 4.27411C23.4208 4.66244 23.77 5.23408 23.8792 5.87172C23.9884 6.50935 23.8495 7.16461 23.4908 7.70301L22.6892 8.90609C22.6121 9.02187 22.5075 9.11676 22.3848 9.18231C22.2621 9.24786 22.1251 9.28203 21.986 9.28177Z" fill="#E0E2E5"/>
<path d="M15.236 9.28177C15.0833 9.28165 14.9335 9.2401 14.8026 9.16156C14.6717 9.08302 14.5645 8.97042 14.4925 8.83577C14.4206 8.70113 14.3865 8.54947 14.3939 8.39698C14.4013 8.24448 14.45 8.09686 14.5347 7.96985L15.3363 6.76687C15.4559 6.58743 15.5022 6.36899 15.4658 6.15643C15.4294 5.94387 15.313 5.75331 15.1405 5.62391L14.3196 5.00807C13.8023 4.61969 13.4533 4.04802 13.3442 3.4104C13.2351 2.77278 13.3742 2.11758 13.7329 1.57929L14.5345 0.376203C14.6586 0.190007 14.8516 0.0607518 15.0711 0.0168716C15.2905 -0.0270086 15.5184 0.0180808 15.7046 0.142221C15.8908 0.266361 16.0201 0.459382 16.0639 0.678823C16.1078 0.898263 16.0627 1.12615 15.9386 1.31234L15.1367 2.51532C15.0171 2.69477 14.9707 2.91322 15.0072 3.12578C15.0436 3.33834 15.16 3.52889 15.3326 3.65828L16.1534 4.27412C16.6708 4.66244 17.02 5.23408 17.1292 5.87172C17.2384 6.50936 17.0995 7.16462 16.7408 7.70301L15.9392 8.90609C15.8621 9.02187 15.7575 9.11677 15.6348 9.18232C15.5121 9.24787 15.3751 9.28203 15.236 9.28177Z" fill="#E0E2E5"/>
<path d="M28.6422 9.28154C28.4895 9.28142 28.3397 9.23987 28.2088 9.16133C28.0779 9.08279 27.9707 8.97019 27.8987 8.83554C27.8268 8.7009 27.7927 8.54924 27.8001 8.39675C27.8075 8.24426 27.8562 8.09663 27.9409 7.96962L28.743 6.76664C28.8626 6.58719 28.909 6.36874 28.8725 6.15618C28.8361 5.94362 28.7197 5.75307 28.5472 5.62368L27.7263 5.00795C27.2089 4.61963 26.8597 4.04798 26.7505 3.41035C26.6413 2.77271 26.7803 2.11745 27.1389 1.57906L27.9405 0.375975C28.0646 0.189695 28.2577 0.060359 28.4772 0.0164195C28.5859 -0.00533719 28.6978 -0.00547361 28.8065 0.0160179C28.9153 0.0375095 29.0187 0.0802082 29.1109 0.141676C29.2032 0.203144 29.2824 0.282177 29.3441 0.374263C29.4058 0.46635 29.4487 0.569685 29.4705 0.678371C29.4922 0.787056 29.4924 0.898962 29.4709 1.0077C29.4494 1.11644 29.4067 1.21988 29.3452 1.31212L28.5437 2.51509C28.4241 2.69453 28.3777 2.91297 28.4141 3.12553C28.4505 3.33809 28.5669 3.52865 28.7394 3.65806L29.5603 4.27389C30.0777 4.66218 30.4269 5.23383 30.5362 5.87148C30.6454 6.50913 30.5064 7.1644 30.1476 7.70278L29.3461 8.90586C29.2689 9.02173 29.1642 9.11668 29.0414 9.18224C28.9186 9.24779 28.7814 9.28191 28.6422 9.28154Z" fill="#E0E2E5"/>
<path d="M49.7812 20.2505H40.5C40.2762 20.2505 40.0616 20.1616 39.9034 20.0034C39.7451 19.8451 39.6562 19.6305 39.6562 19.4067C39.6562 19.183 39.7451 18.9684 39.9034 18.8101C40.0616 18.6519 40.2762 18.563 40.5 18.563H49.7812C50.005 18.563 50.2196 18.6519 50.3779 18.8101C50.5361 18.9684 50.625 19.183 50.625 19.4067C50.625 19.6305 50.5361 19.8451 50.3779 20.0034C50.2196 20.1616 50.005 20.2505 49.7812 20.2505Z" fill="#E0E2E5"/>
<path d="M43.875 30.3755H38.8125C38.5887 30.3755 38.3741 30.2866 38.2159 30.1284C38.0576 29.9701 37.9688 29.7555 37.9688 29.5317C37.9688 29.308 38.0576 29.0934 38.2159 28.9351C38.3741 28.7769 38.5887 28.688 38.8125 28.688H43.875C44.0988 28.688 44.3134 28.7769 44.4716 28.9351C44.6299 29.0934 44.7188 29.308 44.7188 29.5317C44.7188 29.7555 44.6299 29.9701 44.4716 30.1284C44.3134 30.2866 44.0988 30.3755 43.875 30.3755Z" fill="#E0E2E5"/>
<path d="M49.7812 43.8755H0.84375C0.619974 43.8755 0.405362 43.7866 0.247129 43.6284C0.0888948 43.4701 0 43.2555 0 43.0317C0 42.808 0.0888948 42.5934 0.247129 42.4351C0.405362 42.2769 0.619974 42.188 0.84375 42.188H49.7812C50.005 42.188 50.2196 42.2769 50.3779 42.4351C50.5361 42.5934 50.625 42.808 50.625 43.0317C50.625 43.2555 50.5361 43.4701 50.3779 43.6284C50.2196 43.7866 50.005 43.8755 49.7812 43.8755Z" fill="#C2C5C6"/>
<path d="M0.84375 34.5942H43.0312V36.2817C43.0312 36.7293 42.8535 37.1585 42.537 37.475C42.2205 37.7914 41.7913 37.9692 41.3438 37.9692H2.53125C2.0837 37.9692 1.65447 37.7914 1.33801 37.475C1.02154 37.1585 0.84375 36.7293 0.84375 36.2817V34.5942Z" fill="#FDD14B"/>
<path d="M34.5938 43.0317C37.3897 43.0317 39.6562 40.7652 39.6562 37.9692C39.6562 35.1733 37.3897 32.9067 34.5938 32.9067C31.7978 32.9067 29.5312 35.1733 29.5312 37.9692C29.5312 40.7652 31.7978 43.0317 34.5938 43.0317Z" fill="#6A7073"/>
<path d="M34.5938 39.6567C35.5257 39.6567 36.2812 38.9012 36.2812 37.9692C36.2812 37.0373 35.5257 36.2817 34.5938 36.2817C33.6618 36.2817 32.9062 37.0373 32.9062 37.9692C32.9062 38.9012 33.6618 39.6567 34.5938 39.6567Z" fill="#99A2A7"/>
<path d="M9.28125 43.0317C12.0772 43.0317 14.3438 40.7652 14.3438 37.9692C14.3438 35.1733 12.0772 32.9067 9.28125 32.9067C6.48531 32.9067 4.21875 35.1733 4.21875 37.9692C4.21875 40.7652 6.48531 43.0317 9.28125 43.0317Z" fill="#6A7073"/>
<path d="M9.28125 39.6567C10.2132 39.6567 10.9688 38.9012 10.9688 37.9692C10.9688 37.0373 10.2132 36.2817 9.28125 36.2817C8.34927 36.2817 7.59375 37.0373 7.59375 37.9692C7.59375 38.9012 8.34927 39.6567 9.28125 39.6567Z" fill="#99A2A7"/>
<path d="M14.3438 31.2192H29.5312V32.9067C29.5312 33.3543 29.3535 33.7835 29.037 34.1C28.7205 34.4164 28.2913 34.5942 27.8438 34.5942H16.0312C15.5837 34.5942 15.1545 34.4164 14.838 34.1C14.5215 33.7835 14.3438 33.3543 14.3438 32.9067V31.2192Z" fill="#EA8333"/>
<path d="M28.841 27.8442C29.6882 27.8442 30.375 28.5997 30.375 29.5317C30.375 30.4638 29.6882 31.2192 28.841 31.2192H15.034C14.1868 31.2192 13.5 30.4638 13.5 29.5317C13.5 28.5997 14.1868 27.8442 15.034 27.8442H28.841Z" fill="#794832"/>
<path d="M15.1875 24.4692H28.6875V27.8442H15.1875V24.4692Z" fill="#FDD14B"/>
<path d="M31.2188 25.313C31.2188 26.711 30.0315 27.8442 28.5669 27.8442C28.1346 27.8475 27.7078 27.7463 27.3229 27.5492C26.9381 27.3521 26.6066 27.0649 26.3566 26.712C26.1044 27.0623 25.7725 27.3477 25.3884 27.5444C25.0042 27.7412 24.5787 27.8439 24.1471 27.8439C23.7154 27.8439 23.29 27.7412 22.9058 27.5444C22.5216 27.3477 22.1897 27.0623 21.9375 26.712C21.6853 27.0623 21.3534 27.3477 20.9692 27.5444C20.585 27.7412 20.1596 27.8439 19.7279 27.8439C19.2963 27.8439 18.8708 27.7412 18.4866 27.5444C18.1025 27.3477 17.7706 27.0623 17.5184 26.712C17.2684 27.0649 16.9369 27.3521 16.552 27.5492C16.1672 27.7463 15.7404 27.8475 15.3081 27.8442C13.8435 27.8442 12.6562 26.711 12.6562 25.313C12.6562 25.0892 12.7451 24.8746 12.9034 24.7164C13.0616 24.5581 13.2762 24.4692 13.5 24.4692H30.375C30.5988 24.4692 30.8134 24.5581 30.9716 24.7164C31.1299 24.8746 31.2188 25.0892 31.2188 25.313Z" fill="#3BA673"/>
<path d="M29.5313 17.7192V10.9693C29.5312 10.8006 29.5818 10.6358 29.6763 10.4962C29.7709 10.3566 29.9051 10.2485 30.0617 10.1858L34.2804 8.49833C34.3833 8.45718 34.4933 8.4367 34.6041 8.43805C34.7149 8.4394 34.8243 8.46257 34.9261 8.50622C35.028 8.54987 35.1202 8.61315 35.1976 8.69245C35.275 8.77176 35.336 8.86552 35.3772 8.9684C35.4183 9.07128 35.4388 9.18126 35.4375 9.29206C35.4361 9.40286 35.4129 9.5123 35.3693 9.61414C35.3256 9.71599 35.2624 9.80824 35.1831 9.88563C35.1037 9.96301 35.01 10.024 34.9071 10.0652L31.2188 11.5405V17.7192H29.5313Z" fill="#E74444"/>
<path d="M29.5312 14.3442H31.2188V17.7192H29.5312V14.3442Z" fill="#CE3536"/>
</svg>
